<mxfile host="www.draw.io" modified="2020-02-06T15:46:40.415Z" agent="Mozilla/5.0 (Windows NT 10.0; WOW64) AppleWebKit/537.36 (KHTML, like Gecko) Chrome/79.0.3945.130 Safari/537.36" etag="td-LBEFKxW5SBs8wt3GB" version="12.6.5" type="github">
  <diagram id="C5RBs43oDa-KdzZeNtuy" name="Page-1">
    <mxGraphModel dx="1422" dy="723" grid="1" gridSize="10" guides="1" tooltips="1" connect="1" arrows="1" fold="1" page="1" pageScale="1" pageWidth="827" pageHeight="1169" math="0" shadow="0">
      <root>
        <mxCell id="WIyWlLk6GJQsqaUBKTNV-0"/>
        <mxCell id="WIyWlLk6GJQsqaUBKTNV-1" parent="WIyWlLk6GJQsqaUBKTNV-0"/>
        <mxCell id="oUdfxjsugw70LJl3TaLl-24" value="" style="rounded=0;whiteSpace=wrap;html=1;fontSize=12;align=center;fillColor=#f5f5f5;strokeColor=#666666;fontColor=#333333;dashed=1;dashPattern=1 1;strokeWidth=2;" vertex="1" parent="WIyWlLk6GJQsqaUBKTNV-1">
          <mxGeometry x="90" y="1320" width="460" height="300" as="geometry"/>
        </mxCell>
        <mxCell id="oUdfxjsugw70LJl3TaLl-17" value="" style="rounded=0;whiteSpace=wrap;html=1;fontSize=12;align=center;fillColor=#f5f5f5;strokeColor=#666666;fontColor=#333333;dashed=1;dashPattern=1 1;strokeWidth=2;" vertex="1" parent="WIyWlLk6GJQsqaUBKTNV-1">
          <mxGeometry x="90" y="1080" width="460" height="220" as="geometry"/>
        </mxCell>
        <mxCell id="SKU98DOzxrKn4Hus-k4E-80" value="" style="rounded=0;whiteSpace=wrap;html=1;fontSize=12;align=center;fillColor=#f5f5f5;strokeColor=#666666;fontColor=#333333;dashed=1;dashPattern=1 1;strokeWidth=2;" parent="WIyWlLk6GJQsqaUBKTNV-1" vertex="1">
          <mxGeometry x="90" y="690" width="460" height="320" as="geometry"/>
        </mxCell>
        <mxCell id="SKU98DOzxrKn4Hus-k4E-79" value="" style="rounded=0;whiteSpace=wrap;html=1;fontSize=12;align=center;fillColor=#f5f5f5;strokeColor=#666666;fontColor=#333333;dashed=1;dashPattern=1 1;strokeWidth=2;" parent="WIyWlLk6GJQsqaUBKTNV-1" vertex="1">
          <mxGeometry x="90" y="125" width="460" height="235" as="geometry"/>
        </mxCell>
        <mxCell id="SKU98DOzxrKn4Hus-k4E-78" value="" style="rounded=0;whiteSpace=wrap;html=1;fontSize=12;align=center;fillColor=#f5f5f5;strokeColor=#666666;fontColor=#333333;dashed=1;dashPattern=1 1;strokeWidth=2;" parent="WIyWlLk6GJQsqaUBKTNV-1" vertex="1">
          <mxGeometry x="90" y="370" width="460" height="310" as="geometry"/>
        </mxCell>
        <mxCell id="SKU98DOzxrKn4Hus-k4E-22" style="edgeStyle=orthogonalEdgeStyle;rounded=0;orthogonalLoop=1;jettySize=auto;html=1;exitX=0.5;exitY=1;exitDx=0;exitDy=0;entryX=0.5;entryY=0;entryDx=0;entryDy=0;" parent="WIyWlLk6GJQsqaUBKTNV-1" source="WIyWlLk6GJQsqaUBKTNV-3" target="SKU98DOzxrKn4Hus-k4E-19" edge="1">
          <mxGeometry relative="1" as="geometry"/>
        </mxCell>
        <mxCell id="SKU98DOzxrKn4Hus-k4E-63" style="edgeStyle=orthogonalEdgeStyle;rounded=0;orthogonalLoop=1;jettySize=auto;html=1;exitX=0;exitY=0.5;exitDx=0;exitDy=0;fontSize=12;entryX=0;entryY=0.5;entryDx=0;entryDy=0;fillColor=#dae8fc;strokeColor=#6c8ebf;strokeWidth=2;" parent="WIyWlLk6GJQsqaUBKTNV-1" source="WIyWlLk6GJQsqaUBKTNV-3" target="SKU98DOzxrKn4Hus-k4E-52" edge="1">
          <mxGeometry relative="1" as="geometry">
            <mxPoint x="100" y="740" as="targetPoint"/>
            <Array as="points">
              <mxPoint x="40" y="160"/>
              <mxPoint x="40" y="740"/>
            </Array>
          </mxGeometry>
        </mxCell>
        <mxCell id="WIyWlLk6GJQsqaUBKTNV-3" value="NATIONAL DISCOUNT&amp;nbsp;&lt;span&gt;GBMMDR&amp;nbsp;&lt;/span&gt;&lt;br&gt;&lt;div&gt;&lt;span&gt;(UV All Sales)&lt;/span&gt;&lt;/div&gt;" style="rounded=1;whiteSpace=wrap;html=1;fontSize=12;glass=0;strokeWidth=1;shadow=0;align=center;" parent="WIyWlLk6GJQsqaUBKTNV-1" vertex="1">
          <mxGeometry x="150" y="140" width="190" height="40" as="geometry"/>
        </mxCell>
        <mxCell id="SKU98DOzxrKn4Hus-k4E-13" value="&lt;span style=&quot;font-size: 18px&quot;&gt;&lt;b&gt;&lt;u&gt;REMAINING WEST&lt;/u&gt;&lt;/b&gt;&lt;/span&gt;" style="text;html=1;strokeColor=none;fillColor=none;align=center;verticalAlign=middle;whiteSpace=wrap;rounded=0;fontColor=#0000FF;" parent="WIyWlLk6GJQsqaUBKTNV-1" vertex="1">
          <mxGeometry y="30" width="190" height="20" as="geometry"/>
        </mxCell>
        <mxCell id="SKU98DOzxrKn4Hus-k4E-32" style="edgeStyle=orthogonalEdgeStyle;rounded=0;orthogonalLoop=1;jettySize=auto;html=1;exitX=0.5;exitY=1;exitDx=0;exitDy=0;entryX=0.5;entryY=0;entryDx=0;entryDy=0;fontSize=9;" parent="WIyWlLk6GJQsqaUBKTNV-1" source="SKU98DOzxrKn4Hus-k4E-19" target="SKU98DOzxrKn4Hus-k4E-24" edge="1">
          <mxGeometry relative="1" as="geometry"/>
        </mxCell>
        <mxCell id="SKU98DOzxrKn4Hus-k4E-19" value="Subtract &lt;br&gt;(UV All Sales)" style="rounded=0;whiteSpace=wrap;html=1;fillColor=#dae8fc;strokeColor=#6c8ebf;" parent="WIyWlLk6GJQsqaUBKTNV-1" vertex="1">
          <mxGeometry x="185" y="200" width="120" height="40" as="geometry"/>
        </mxCell>
        <mxCell id="SKU98DOzxrKn4Hus-k4E-36" style="edgeStyle=orthogonalEdgeStyle;rounded=0;orthogonalLoop=1;jettySize=auto;html=1;exitX=1;exitY=0.5;exitDx=0;exitDy=0;entryX=0;entryY=0.5;entryDx=0;entryDy=0;fontSize=9;fillColor=#f8cecc;strokeColor=#b85450;strokeWidth=3;" parent="WIyWlLk6GJQsqaUBKTNV-1" source="SKU98DOzxrKn4Hus-k4E-24" target="SKU98DOzxrKn4Hus-k4E-35" edge="1">
          <mxGeometry relative="1" as="geometry">
            <Array as="points">
              <mxPoint x="350" y="290"/>
              <mxPoint x="350" y="340"/>
              <mxPoint x="580" y="340"/>
              <mxPoint x="580" y="385"/>
              <mxPoint x="620" y="385"/>
            </Array>
          </mxGeometry>
        </mxCell>
        <mxCell id="SKU98DOzxrKn4Hus-k4E-38" style="edgeStyle=orthogonalEdgeStyle;rounded=0;orthogonalLoop=1;jettySize=auto;html=1;exitX=0.5;exitY=1;exitDx=0;exitDy=0;entryX=0.5;entryY=0;entryDx=0;entryDy=0;fontSize=9;" parent="WIyWlLk6GJQsqaUBKTNV-1" source="SKU98DOzxrKn4Hus-k4E-24" target="SKU98DOzxrKn4Hus-k4E-37" edge="1">
          <mxGeometry relative="1" as="geometry"/>
        </mxCell>
        <mxCell id="oUdfxjsugw70LJl3TaLl-14" style="edgeStyle=orthogonalEdgeStyle;rounded=0;orthogonalLoop=1;jettySize=auto;html=1;exitX=0;exitY=0.5;exitDx=0;exitDy=0;strokeWidth=2;fillColor=#dae8fc;strokeColor=#6c8ebf;" edge="1" parent="WIyWlLk6GJQsqaUBKTNV-1" source="SKU98DOzxrKn4Hus-k4E-24" target="oUdfxjsugw70LJl3TaLl-3">
          <mxGeometry relative="1" as="geometry">
            <Array as="points">
              <mxPoint x="10" y="290"/>
              <mxPoint x="10" y="1090"/>
              <mxPoint x="475" y="1090"/>
            </Array>
          </mxGeometry>
        </mxCell>
        <mxCell id="SKU98DOzxrKn4Hus-k4E-24" value="REM DISC WEST&lt;br&gt;UV All Sales" style="rounded=1;whiteSpace=wrap;html=1;" parent="WIyWlLk6GJQsqaUBKTNV-1" vertex="1">
          <mxGeometry x="155" y="270" width="180" height="40" as="geometry"/>
        </mxCell>
        <mxCell id="oUdfxjsugw70LJl3TaLl-0" style="edgeStyle=orthogonalEdgeStyle;rounded=0;orthogonalLoop=1;jettySize=auto;html=1;exitX=0;exitY=0.5;exitDx=0;exitDy=0;" edge="1" parent="WIyWlLk6GJQsqaUBKTNV-1" source="SKU98DOzxrKn4Hus-k4E-27" target="SKU98DOzxrKn4Hus-k4E-19">
          <mxGeometry relative="1" as="geometry"/>
        </mxCell>
        <mxCell id="oUdfxjsugw70LJl3TaLl-2" style="edgeStyle=orthogonalEdgeStyle;rounded=0;orthogonalLoop=1;jettySize=auto;html=1;exitX=0.5;exitY=1;exitDx=0;exitDy=0;entryX=0.5;entryY=0;entryDx=0;entryDy=0;" edge="1" parent="WIyWlLk6GJQsqaUBKTNV-1" source="SKU98DOzxrKn4Hus-k4E-27" target="SKU98DOzxrKn4Hus-k4E-81">
          <mxGeometry relative="1" as="geometry"/>
        </mxCell>
        <mxCell id="SKU98DOzxrKn4Hus-k4E-27" value="&lt;div&gt;&lt;span style=&quot;background-color: rgb(255 , 255 , 102)&quot;&gt;REM DISCOUNT MARITIMES&lt;/span&gt;&lt;/div&gt;&lt;div&gt;&lt;span style=&quot;background-color: rgb(255 , 255 , 102)&quot;&gt;REM DISC QUEBEC&lt;/span&gt;&lt;/div&gt;&lt;div&gt;&lt;span style=&quot;background-color: rgb(255 , 255 , 102)&quot;&gt;REM DISC ONTARIO&lt;/span&gt;&lt;/div&gt;&lt;div&gt;FOOD BASICS ONTARIO GB&lt;/div&gt;&lt;div&gt;PRICE CHOPPER/FRESHCO ONTARIO GB&lt;/div&gt;&lt;div&gt;NO FRILLS ONTARIO GB&lt;/div&gt;&lt;div&gt;RCSS ONTARIO GB&lt;/div&gt;&lt;div&gt;SUPER C QUEBEC GB&lt;/div&gt;&lt;div&gt;MAXI &amp;amp; CO QUEBEC GB&lt;/div&gt;&lt;div&gt;MAXI BANNER QUEBEC GB&lt;/div&gt;&lt;div&gt;RCSS TOTAL WEST GB&lt;/div&gt;&lt;div&gt;NO FRILLS TOTAL WEST GB&lt;/div&gt;&lt;div&gt;EXTRA FOODS TOTAL WEST GB&lt;/div&gt;" style="text;html=1;fontSize=9;fillColor=#FFFFFF;strokeColor=#666666;fontColor=#333333;" parent="WIyWlLk6GJQsqaUBKTNV-1" vertex="1">
          <mxGeometry x="350" y="145" width="185" height="135" as="geometry"/>
        </mxCell>
        <mxCell id="SKU98DOzxrKn4Hus-k4E-35" value="OUTPUT" style="shape=datastore;whiteSpace=wrap;html=1;rounded=0;fontSize=9;" parent="WIyWlLk6GJQsqaUBKTNV-1" vertex="1">
          <mxGeometry x="620" y="330" width="100" height="90" as="geometry"/>
        </mxCell>
        <mxCell id="SKU98DOzxrKn4Hus-k4E-44" style="edgeStyle=orthogonalEdgeStyle;rounded=0;orthogonalLoop=1;jettySize=auto;html=1;exitX=0.5;exitY=1;exitDx=0;exitDy=0;entryX=0.5;entryY=0;entryDx=0;entryDy=0;fontSize=9;" parent="WIyWlLk6GJQsqaUBKTNV-1" source="SKU98DOzxrKn4Hus-k4E-37" target="SKU98DOzxrKn4Hus-k4E-43" edge="1">
          <mxGeometry relative="1" as="geometry"/>
        </mxCell>
        <mxCell id="SKU98DOzxrKn4Hus-k4E-37" value="BASELINE &lt;br&gt;ALGORITHM&lt;br&gt;(STANDARD)" style="shape=trapezoid;perimeter=trapezoidPerimeter;whiteSpace=wrap;html=1;rounded=0;fontSize=9;fillColor=#dae8fc;strokeColor=#6c8ebf;" parent="WIyWlLk6GJQsqaUBKTNV-1" vertex="1">
          <mxGeometry x="185" y="390" width="120" height="60" as="geometry"/>
        </mxCell>
        <mxCell id="SKU98DOzxrKn4Hus-k4E-50" style="edgeStyle=orthogonalEdgeStyle;rounded=0;orthogonalLoop=1;jettySize=auto;html=1;exitX=0.5;exitY=1;exitDx=0;exitDy=0;fontSize=12;" parent="WIyWlLk6GJQsqaUBKTNV-1" source="SKU98DOzxrKn4Hus-k4E-40" target="SKU98DOzxrKn4Hus-k4E-49" edge="1">
          <mxGeometry relative="1" as="geometry"/>
        </mxCell>
        <mxCell id="SKU98DOzxrKn4Hus-k4E-40" value="ADD &lt;br&gt;BUV All Sales" style="rounded=0;whiteSpace=wrap;html=1;fillColor=#dae8fc;strokeColor=#6c8ebf;" parent="WIyWlLk6GJQsqaUBKTNV-1" vertex="1">
          <mxGeometry x="185" y="550" width="120" height="35" as="geometry"/>
        </mxCell>
        <mxCell id="SKU98DOzxrKn4Hus-k4E-45" style="edgeStyle=orthogonalEdgeStyle;rounded=0;orthogonalLoop=1;jettySize=auto;html=1;exitX=1;exitY=0.5;exitDx=0;exitDy=0;entryX=0.5;entryY=1;entryDx=0;entryDy=0;fontSize=12;fillColor=#f8cecc;strokeColor=#b85450;strokeWidth=3;" parent="WIyWlLk6GJQsqaUBKTNV-1" source="SKU98DOzxrKn4Hus-k4E-43" target="SKU98DOzxrKn4Hus-k4E-35" edge="1">
          <mxGeometry relative="1" as="geometry">
            <Array as="points">
              <mxPoint x="370" y="500"/>
              <mxPoint x="370" y="580"/>
              <mxPoint x="670" y="580"/>
            </Array>
          </mxGeometry>
        </mxCell>
        <mxCell id="SKU98DOzxrKn4Hus-k4E-47" style="edgeStyle=orthogonalEdgeStyle;rounded=0;orthogonalLoop=1;jettySize=auto;html=1;exitX=0.5;exitY=1;exitDx=0;exitDy=0;entryX=0.5;entryY=0;entryDx=0;entryDy=0;fontSize=12;" parent="WIyWlLk6GJQsqaUBKTNV-1" source="SKU98DOzxrKn4Hus-k4E-43" target="SKU98DOzxrKn4Hus-k4E-40" edge="1">
          <mxGeometry relative="1" as="geometry"/>
        </mxCell>
        <mxCell id="SKU98DOzxrKn4Hus-k4E-43" value="REM DISC WEST&lt;br&gt;BUV All Sales" style="rounded=1;whiteSpace=wrap;html=1;fontSize=12;" parent="WIyWlLk6GJQsqaUBKTNV-1" vertex="1">
          <mxGeometry x="147.5" y="480" width="195" height="40" as="geometry"/>
        </mxCell>
        <mxCell id="SKU98DOzxrKn4Hus-k4E-51" style="edgeStyle=orthogonalEdgeStyle;rounded=0;orthogonalLoop=1;jettySize=auto;html=1;exitX=1;exitY=0.5;exitDx=0;exitDy=0;fontSize=12;fillColor=#f8cecc;strokeColor=#b85450;strokeWidth=3;" parent="WIyWlLk6GJQsqaUBKTNV-1" source="SKU98DOzxrKn4Hus-k4E-49" edge="1">
          <mxGeometry relative="1" as="geometry">
            <mxPoint x="670" y="430" as="targetPoint"/>
          </mxGeometry>
        </mxCell>
        <mxCell id="SKU98DOzxrKn4Hus-k4E-53" style="edgeStyle=orthogonalEdgeStyle;rounded=0;orthogonalLoop=1;jettySize=auto;html=1;exitX=0.5;exitY=1;exitDx=0;exitDy=0;entryX=0.5;entryY=0;entryDx=0;entryDy=0;fontSize=12;" parent="WIyWlLk6GJQsqaUBKTNV-1" source="SKU98DOzxrKn4Hus-k4E-49" target="SKU98DOzxrKn4Hus-k4E-52" edge="1">
          <mxGeometry relative="1" as="geometry"/>
        </mxCell>
        <mxCell id="SKU98DOzxrKn4Hus-k4E-49" value="NATIONAL DISC GBMMDR&lt;br&gt;BUV All Sales" style="rounded=1;whiteSpace=wrap;html=1;" parent="WIyWlLk6GJQsqaUBKTNV-1" vertex="1">
          <mxGeometry x="155" y="620" width="180" height="40" as="geometry"/>
        </mxCell>
        <mxCell id="SKU98DOzxrKn4Hus-k4E-70" style="edgeStyle=orthogonalEdgeStyle;rounded=0;orthogonalLoop=1;jettySize=auto;html=1;exitX=0.5;exitY=1;exitDx=0;exitDy=0;entryX=0.5;entryY=0;entryDx=0;entryDy=0;strokeWidth=1;fontSize=12;" parent="WIyWlLk6GJQsqaUBKTNV-1" source="SKU98DOzxrKn4Hus-k4E-52" target="SKU98DOzxrKn4Hus-k4E-59" edge="1">
          <mxGeometry relative="1" as="geometry"/>
        </mxCell>
        <mxCell id="SKU98DOzxrKn4Hus-k4E-52" value="CAUSAL &lt;br&gt;BUCKETING" style="shape=trapezoid;perimeter=trapezoidPerimeter;whiteSpace=wrap;html=1;rounded=0;fontSize=9;fillColor=#dae8fc;strokeColor=#6c8ebf;" parent="WIyWlLk6GJQsqaUBKTNV-1" vertex="1">
          <mxGeometry x="185" y="710" width="120" height="60" as="geometry"/>
        </mxCell>
        <mxCell id="SKU98DOzxrKn4Hus-k4E-54" value="All Sales&lt;br&gt;Any Ad&lt;br&gt;Ad w/o Display&lt;br&gt;Ad w/ Display&lt;br&gt;" style="text;html=1;fontSize=9;fillColor=#ffffff;" parent="WIyWlLk6GJQsqaUBKTNV-1" vertex="1">
          <mxGeometry x="350" y="710" width="70" height="50" as="geometry"/>
        </mxCell>
        <mxCell id="SKU98DOzxrKn4Hus-k4E-55" value="ISF&lt;br&gt;TPR Only&lt;br&gt;Display Only&lt;br&gt;Display w TPR&lt;br&gt;Non Promo" style="text;html=1;fontSize=9;fillColor=#ffffff;" parent="WIyWlLk6GJQsqaUBKTNV-1" vertex="1">
          <mxGeometry x="420" y="710" width="80" height="60" as="geometry"/>
        </mxCell>
        <mxCell id="SKU98DOzxrKn4Hus-k4E-72" style="edgeStyle=orthogonalEdgeStyle;rounded=0;orthogonalLoop=1;jettySize=auto;html=1;exitX=0.5;exitY=1;exitDx=0;exitDy=0;entryX=0.5;entryY=0;entryDx=0;entryDy=0;strokeWidth=1;fontSize=12;" parent="WIyWlLk6GJQsqaUBKTNV-1" source="SKU98DOzxrKn4Hus-k4E-59" target="SKU98DOzxrKn4Hus-k4E-67" edge="1">
          <mxGeometry relative="1" as="geometry"/>
        </mxCell>
        <mxCell id="oUdfxjsugw70LJl3TaLl-44" style="edgeStyle=orthogonalEdgeStyle;rounded=0;orthogonalLoop=1;jettySize=auto;html=1;exitX=1;exitY=0.5;exitDx=0;exitDy=0;strokeWidth=3;fontColor=#0000FF;fillColor=#f8cecc;strokeColor=#b85450;" edge="1" parent="WIyWlLk6GJQsqaUBKTNV-1" source="SKU98DOzxrKn4Hus-k4E-59">
          <mxGeometry relative="1" as="geometry">
            <mxPoint x="670" y="440" as="targetPoint"/>
            <Array as="points">
              <mxPoint x="370" y="820"/>
              <mxPoint x="370" y="790"/>
              <mxPoint x="670" y="790"/>
            </Array>
          </mxGeometry>
        </mxCell>
        <mxCell id="SKU98DOzxrKn4Hus-k4E-59" value="NATIONAL DISC GBMMDR&lt;br&gt;UV/BUV Causals" style="rounded=1;whiteSpace=wrap;html=1;" parent="WIyWlLk6GJQsqaUBKTNV-1" vertex="1">
          <mxGeometry x="155" y="800" width="180" height="40" as="geometry"/>
        </mxCell>
        <mxCell id="SKU98DOzxrKn4Hus-k4E-75" style="edgeStyle=orthogonalEdgeStyle;rounded=0;orthogonalLoop=1;jettySize=auto;html=1;exitX=0.5;exitY=1;exitDx=0;exitDy=0;entryX=0.5;entryY=0;entryDx=0;entryDy=0;strokeWidth=1;fontSize=12;" parent="WIyWlLk6GJQsqaUBKTNV-1" source="SKU98DOzxrKn4Hus-k4E-67" target="SKU98DOzxrKn4Hus-k4E-74" edge="1">
          <mxGeometry relative="1" as="geometry"/>
        </mxCell>
        <mxCell id="SKU98DOzxrKn4Hus-k4E-67" value="Subtract &lt;br&gt;UV/BUV Causals" style="rounded=0;whiteSpace=wrap;html=1;fillColor=#dae8fc;strokeColor=#6c8ebf;" parent="WIyWlLk6GJQsqaUBKTNV-1" vertex="1">
          <mxGeometry x="185" y="860" width="120" height="40" as="geometry"/>
        </mxCell>
        <mxCell id="SKU98DOzxrKn4Hus-k4E-77" style="edgeStyle=orthogonalEdgeStyle;rounded=0;orthogonalLoop=1;jettySize=auto;html=1;exitX=1;exitY=0.5;exitDx=0;exitDy=0;entryX=0.5;entryY=1;entryDx=0;entryDy=0;strokeWidth=3;fontSize=12;fillColor=#f8cecc;strokeColor=#b85450;" parent="WIyWlLk6GJQsqaUBKTNV-1" source="SKU98DOzxrKn4Hus-k4E-74" target="SKU98DOzxrKn4Hus-k4E-35" edge="1">
          <mxGeometry relative="1" as="geometry"/>
        </mxCell>
        <mxCell id="SKU98DOzxrKn4Hus-k4E-74" value="REM DISC WEST&lt;br&gt;UV/BUV Causals" style="rounded=1;whiteSpace=wrap;html=1;" parent="WIyWlLk6GJQsqaUBKTNV-1" vertex="1">
          <mxGeometry x="142.5" y="950" width="205" height="40" as="geometry"/>
        </mxCell>
        <mxCell id="SKU98DOzxrKn4Hus-k4E-86" style="edgeStyle=orthogonalEdgeStyle;rounded=0;orthogonalLoop=1;jettySize=auto;html=1;exitX=0.5;exitY=1;exitDx=0;exitDy=0;entryX=1;entryY=0.5;entryDx=0;entryDy=0;strokeWidth=1;fontSize=12;" parent="WIyWlLk6GJQsqaUBKTNV-1" source="SKU98DOzxrKn4Hus-k4E-81" target="SKU98DOzxrKn4Hus-k4E-40" edge="1">
          <mxGeometry relative="1" as="geometry"/>
        </mxCell>
        <mxCell id="SKU98DOzxrKn4Hus-k4E-81" value="BASELINE &lt;br&gt;ALGORITHM&lt;br&gt;(VELOCITY)" style="shape=trapezoid;perimeter=trapezoidPerimeter;whiteSpace=wrap;html=1;rounded=0;fontSize=9;fillColor=#dae8fc;strokeColor=#6c8ebf;" parent="WIyWlLk6GJQsqaUBKTNV-1" vertex="1">
          <mxGeometry x="382.5" y="460" width="120" height="60" as="geometry"/>
        </mxCell>
        <mxCell id="oUdfxjsugw70LJl3TaLl-13" style="edgeStyle=orthogonalEdgeStyle;rounded=0;orthogonalLoop=1;jettySize=auto;html=1;exitX=0;exitY=0.5;exitDx=0;exitDy=0;entryX=1;entryY=0.5;entryDx=0;entryDy=0;strokeWidth=1;" edge="1" parent="WIyWlLk6GJQsqaUBKTNV-1" source="oUdfxjsugw70LJl3TaLl-3" target="oUdfxjsugw70LJl3TaLl-8">
          <mxGeometry relative="1" as="geometry"/>
        </mxCell>
        <mxCell id="oUdfxjsugw70LJl3TaLl-28" style="edgeStyle=orthogonalEdgeStyle;rounded=0;orthogonalLoop=1;jettySize=auto;html=1;exitX=0.5;exitY=1;exitDx=0;exitDy=0;entryX=0.5;entryY=0;entryDx=0;entryDy=0;strokeWidth=1;fontColor=#0000FF;" edge="1" parent="WIyWlLk6GJQsqaUBKTNV-1" source="oUdfxjsugw70LJl3TaLl-3" target="oUdfxjsugw70LJl3TaLl-23">
          <mxGeometry relative="1" as="geometry"/>
        </mxCell>
        <mxCell id="oUdfxjsugw70LJl3TaLl-3" value="&lt;div&gt;&lt;span style=&quot;background-color: rgb(255 , 255 , 102)&quot;&gt;REM DISC WEST&lt;/span&gt;&lt;/div&gt;&lt;div&gt;CO-OP CALGARY GB&lt;/div&gt;&lt;div&gt;CO-OP PRAIRIES EXCALGARY CO-OP GB&lt;/div&gt;&lt;div&gt;SAVE-ON-FOODS WEST GB&lt;/div&gt;&lt;div&gt;SOBEYS PRAIRIES GB&lt;/div&gt;&lt;div&gt;THRIFTY FOODS BR COL GB&lt;/div&gt;&lt;div&gt;SAFEWAY TL. WEST + ONTARIO GB&lt;/div&gt;&lt;div&gt;IGA PRAIRIES GB&lt;/div&gt;&lt;div&gt;YIG TOTAL WEST GB&lt;/div&gt;&lt;div&gt;RCSS TOTAL WEST GB&lt;/div&gt;&lt;div&gt;NO FRILLS TOTAL WEST GB&lt;/div&gt;&lt;div&gt;EXTRA FOODS TOTAL WEST GB&lt;/div&gt;" style="text;html=1;fontSize=9;fillColor=#FFFFFF;strokeColor=#666666;fontColor=#333333;" vertex="1" parent="WIyWlLk6GJQsqaUBKTNV-1">
          <mxGeometry x="382.5" y="1121" width="185" height="136" as="geometry"/>
        </mxCell>
        <mxCell id="oUdfxjsugw70LJl3TaLl-4" value="&lt;span style=&quot;font-size: 18px&quot;&gt;&lt;b&gt;&lt;u&gt;REM DISCWest&lt;/u&gt;&lt;/b&gt;&lt;/span&gt;" style="text;html=1;strokeColor=none;fillColor=none;align=center;verticalAlign=middle;whiteSpace=wrap;rounded=0;" vertex="1" parent="WIyWlLk6GJQsqaUBKTNV-1">
          <mxGeometry x="40" y="80" width="157.5" height="20" as="geometry"/>
        </mxCell>
        <mxCell id="oUdfxjsugw70LJl3TaLl-5" value="&lt;span style=&quot;font-size: 18px&quot;&gt;&lt;b&gt;&lt;u&gt;REM CONV WEST&lt;/u&gt;&lt;/b&gt;&lt;/span&gt;" style="text;html=1;strokeColor=none;fillColor=none;align=center;verticalAlign=middle;whiteSpace=wrap;rounded=0;" vertex="1" parent="WIyWlLk6GJQsqaUBKTNV-1">
          <mxGeometry x="40" y="1050" width="157.5" height="20" as="geometry"/>
        </mxCell>
        <mxCell id="oUdfxjsugw70LJl3TaLl-9" style="edgeStyle=orthogonalEdgeStyle;rounded=0;orthogonalLoop=1;jettySize=auto;html=1;exitX=0.5;exitY=1;exitDx=0;exitDy=0;entryX=0.5;entryY=0;entryDx=0;entryDy=0;strokeWidth=1;" edge="1" parent="WIyWlLk6GJQsqaUBKTNV-1" source="oUdfxjsugw70LJl3TaLl-6" target="oUdfxjsugw70LJl3TaLl-8">
          <mxGeometry relative="1" as="geometry"/>
        </mxCell>
        <mxCell id="oUdfxjsugw70LJl3TaLl-6" value="TOTAL WEST GBMMDR&lt;br&gt;UV All Sales" style="rounded=1;whiteSpace=wrap;html=1;" vertex="1" parent="WIyWlLk6GJQsqaUBKTNV-1">
          <mxGeometry x="142.5" y="1100" width="205" height="40" as="geometry"/>
        </mxCell>
        <mxCell id="oUdfxjsugw70LJl3TaLl-16" style="edgeStyle=orthogonalEdgeStyle;rounded=0;orthogonalLoop=1;jettySize=auto;html=1;exitX=0.5;exitY=1;exitDx=0;exitDy=0;entryX=0.5;entryY=0;entryDx=0;entryDy=0;strokeWidth=1;" edge="1" parent="WIyWlLk6GJQsqaUBKTNV-1" source="oUdfxjsugw70LJl3TaLl-8" target="oUdfxjsugw70LJl3TaLl-15">
          <mxGeometry relative="1" as="geometry"/>
        </mxCell>
        <mxCell id="oUdfxjsugw70LJl3TaLl-8" value="Subtract &lt;br&gt;UV All Sales" style="rounded=0;whiteSpace=wrap;html=1;fillColor=#dae8fc;strokeColor=#6c8ebf;" vertex="1" parent="WIyWlLk6GJQsqaUBKTNV-1">
          <mxGeometry x="185" y="1169" width="120" height="40" as="geometry"/>
        </mxCell>
        <mxCell id="oUdfxjsugw70LJl3TaLl-20" style="edgeStyle=orthogonalEdgeStyle;rounded=0;orthogonalLoop=1;jettySize=auto;html=1;exitX=0.5;exitY=1;exitDx=0;exitDy=0;entryX=0.5;entryY=0;entryDx=0;entryDy=0;strokeWidth=1;fontColor=#0000FF;" edge="1" parent="WIyWlLk6GJQsqaUBKTNV-1" source="oUdfxjsugw70LJl3TaLl-15" target="oUdfxjsugw70LJl3TaLl-18">
          <mxGeometry relative="1" as="geometry"/>
        </mxCell>
        <mxCell id="oUdfxjsugw70LJl3TaLl-46" style="edgeStyle=orthogonalEdgeStyle;rounded=0;orthogonalLoop=1;jettySize=auto;html=1;exitX=1;exitY=0.5;exitDx=0;exitDy=0;strokeWidth=3;fontColor=#0000FF;fillColor=#f8cecc;strokeColor=#b85450;" edge="1" parent="WIyWlLk6GJQsqaUBKTNV-1" source="oUdfxjsugw70LJl3TaLl-15" target="SKU98DOzxrKn4Hus-k4E-35">
          <mxGeometry relative="1" as="geometry">
            <Array as="points">
              <mxPoint x="360" y="1260"/>
              <mxPoint x="360" y="1280"/>
              <mxPoint x="670" y="1280"/>
            </Array>
          </mxGeometry>
        </mxCell>
        <mxCell id="oUdfxjsugw70LJl3TaLl-15" value="REM CONV WEST&lt;br&gt;UV All Sales" style="rounded=1;whiteSpace=wrap;html=1;" vertex="1" parent="WIyWlLk6GJQsqaUBKTNV-1">
          <mxGeometry x="155" y="1240" width="180" height="40" as="geometry"/>
        </mxCell>
        <mxCell id="oUdfxjsugw70LJl3TaLl-21" style="edgeStyle=orthogonalEdgeStyle;rounded=0;orthogonalLoop=1;jettySize=auto;html=1;exitX=0.5;exitY=1;exitDx=0;exitDy=0;entryX=0.5;entryY=0;entryDx=0;entryDy=0;strokeWidth=1;fontColor=#0000FF;" edge="1" parent="WIyWlLk6GJQsqaUBKTNV-1" source="oUdfxjsugw70LJl3TaLl-18" target="oUdfxjsugw70LJl3TaLl-19">
          <mxGeometry relative="1" as="geometry"/>
        </mxCell>
        <mxCell id="oUdfxjsugw70LJl3TaLl-18" value="BASELINE &lt;br&gt;ALGORITHM&lt;br&gt;(STANDARD)" style="shape=trapezoid;perimeter=trapezoidPerimeter;whiteSpace=wrap;html=1;rounded=0;fontSize=9;fillColor=#dae8fc;strokeColor=#6c8ebf;" vertex="1" parent="WIyWlLk6GJQsqaUBKTNV-1">
          <mxGeometry x="185" y="1340" width="120" height="60" as="geometry"/>
        </mxCell>
        <mxCell id="oUdfxjsugw70LJl3TaLl-26" style="edgeStyle=orthogonalEdgeStyle;rounded=0;orthogonalLoop=1;jettySize=auto;html=1;exitX=0.5;exitY=1;exitDx=0;exitDy=0;entryX=0.5;entryY=0;entryDx=0;entryDy=0;strokeWidth=1;fontColor=#0000FF;" edge="1" parent="WIyWlLk6GJQsqaUBKTNV-1" source="oUdfxjsugw70LJl3TaLl-19" target="oUdfxjsugw70LJl3TaLl-22">
          <mxGeometry relative="1" as="geometry"/>
        </mxCell>
        <mxCell id="oUdfxjsugw70LJl3TaLl-48" style="edgeStyle=orthogonalEdgeStyle;rounded=0;orthogonalLoop=1;jettySize=auto;html=1;exitX=1;exitY=0.5;exitDx=0;exitDy=0;strokeWidth=3;fontColor=#0000FF;fillColor=#f8cecc;strokeColor=#b85450;" edge="1" parent="WIyWlLk6GJQsqaUBKTNV-1" source="oUdfxjsugw70LJl3TaLl-19">
          <mxGeometry relative="1" as="geometry">
            <mxPoint x="670" y="420.5882352941176" as="targetPoint"/>
            <Array as="points">
              <mxPoint x="370" y="1450"/>
              <mxPoint x="370" y="1480"/>
              <mxPoint x="670" y="1480"/>
            </Array>
          </mxGeometry>
        </mxCell>
        <mxCell id="oUdfxjsugw70LJl3TaLl-19" value="REM CONV WEST&lt;br&gt;BUV All Sales" style="rounded=1;whiteSpace=wrap;html=1;" vertex="1" parent="WIyWlLk6GJQsqaUBKTNV-1">
          <mxGeometry x="155" y="1430" width="180" height="40" as="geometry"/>
        </mxCell>
        <mxCell id="oUdfxjsugw70LJl3TaLl-27" style="edgeStyle=orthogonalEdgeStyle;rounded=0;orthogonalLoop=1;jettySize=auto;html=1;exitX=0.5;exitY=1;exitDx=0;exitDy=0;entryX=0.5;entryY=0;entryDx=0;entryDy=0;strokeWidth=1;fontColor=#0000FF;" edge="1" parent="WIyWlLk6GJQsqaUBKTNV-1" source="oUdfxjsugw70LJl3TaLl-22" target="oUdfxjsugw70LJl3TaLl-25">
          <mxGeometry relative="1" as="geometry"/>
        </mxCell>
        <mxCell id="oUdfxjsugw70LJl3TaLl-22" value="ADD &lt;br&gt;BUV All Sales" style="rounded=0;whiteSpace=wrap;html=1;fillColor=#dae8fc;strokeColor=#6c8ebf;" vertex="1" parent="WIyWlLk6GJQsqaUBKTNV-1">
          <mxGeometry x="185" y="1490" width="120" height="35" as="geometry"/>
        </mxCell>
        <mxCell id="oUdfxjsugw70LJl3TaLl-29" style="edgeStyle=orthogonalEdgeStyle;rounded=0;orthogonalLoop=1;jettySize=auto;html=1;exitX=0.5;exitY=1;exitDx=0;exitDy=0;entryX=1;entryY=0.5;entryDx=0;entryDy=0;strokeWidth=1;fontColor=#0000FF;" edge="1" parent="WIyWlLk6GJQsqaUBKTNV-1" source="oUdfxjsugw70LJl3TaLl-23" target="oUdfxjsugw70LJl3TaLl-22">
          <mxGeometry relative="1" as="geometry"/>
        </mxCell>
        <mxCell id="oUdfxjsugw70LJl3TaLl-23" value="BASELINE &lt;br&gt;ALGORITHM&lt;br&gt;(VELOCITY)" style="shape=trapezoid;perimeter=trapezoidPerimeter;whiteSpace=wrap;html=1;rounded=0;fontSize=9;fillColor=#dae8fc;strokeColor=#6c8ebf;" vertex="1" parent="WIyWlLk6GJQsqaUBKTNV-1">
          <mxGeometry x="415" y="1400" width="120" height="60" as="geometry"/>
        </mxCell>
        <mxCell id="oUdfxjsugw70LJl3TaLl-41" style="edgeStyle=orthogonalEdgeStyle;rounded=0;orthogonalLoop=1;jettySize=auto;html=1;exitX=0.5;exitY=1;exitDx=0;exitDy=0;strokeWidth=1;fontColor=#0000FF;" edge="1" parent="WIyWlLk6GJQsqaUBKTNV-1" source="oUdfxjsugw70LJl3TaLl-25" target="oUdfxjsugw70LJl3TaLl-32">
          <mxGeometry relative="1" as="geometry"/>
        </mxCell>
        <mxCell id="oUdfxjsugw70LJl3TaLl-49" style="edgeStyle=orthogonalEdgeStyle;rounded=0;orthogonalLoop=1;jettySize=auto;html=1;exitX=1;exitY=0.5;exitDx=0;exitDy=0;entryX=0.5;entryY=1;entryDx=0;entryDy=0;strokeWidth=3;fontColor=#0000FF;fillColor=#f8cecc;strokeColor=#b85450;" edge="1" parent="WIyWlLk6GJQsqaUBKTNV-1" source="oUdfxjsugw70LJl3TaLl-25" target="SKU98DOzxrKn4Hus-k4E-35">
          <mxGeometry relative="1" as="geometry"/>
        </mxCell>
        <mxCell id="oUdfxjsugw70LJl3TaLl-25" value="TOTAL WEST GBMMDR&lt;br&gt;BUV All Sales" style="rounded=1;whiteSpace=wrap;html=1;" vertex="1" parent="WIyWlLk6GJQsqaUBKTNV-1">
          <mxGeometry x="155" y="1550" width="180" height="40" as="geometry"/>
        </mxCell>
        <mxCell id="oUdfxjsugw70LJl3TaLl-30" value="" style="rounded=0;whiteSpace=wrap;html=1;fontSize=12;align=center;fillColor=#f5f5f5;strokeColor=#666666;fontColor=#333333;dashed=1;dashPattern=1 1;strokeWidth=2;" vertex="1" parent="WIyWlLk6GJQsqaUBKTNV-1">
          <mxGeometry x="90" y="1640" width="460" height="320" as="geometry"/>
        </mxCell>
        <mxCell id="oUdfxjsugw70LJl3TaLl-31" style="edgeStyle=orthogonalEdgeStyle;rounded=0;orthogonalLoop=1;jettySize=auto;html=1;exitX=0.5;exitY=1;exitDx=0;exitDy=0;entryX=0.5;entryY=0;entryDx=0;entryDy=0;strokeWidth=1;fontSize=12;" edge="1" source="oUdfxjsugw70LJl3TaLl-32" target="oUdfxjsugw70LJl3TaLl-36" parent="WIyWlLk6GJQsqaUBKTNV-1">
          <mxGeometry relative="1" as="geometry"/>
        </mxCell>
        <mxCell id="oUdfxjsugw70LJl3TaLl-32" value="CAUSAL &lt;br&gt;BUCKETING" style="shape=trapezoid;perimeter=trapezoidPerimeter;whiteSpace=wrap;html=1;rounded=0;fontSize=9;fillColor=#dae8fc;strokeColor=#6c8ebf;" vertex="1" parent="WIyWlLk6GJQsqaUBKTNV-1">
          <mxGeometry x="185" y="1660" width="120" height="60" as="geometry"/>
        </mxCell>
        <mxCell id="oUdfxjsugw70LJl3TaLl-33" value="All Sales&lt;br&gt;Any Ad&lt;br&gt;Ad w/o Display&lt;br&gt;Ad w/ Display&lt;br&gt;" style="text;html=1;fontSize=9;fillColor=#ffffff;" vertex="1" parent="WIyWlLk6GJQsqaUBKTNV-1">
          <mxGeometry x="350" y="1660" width="70" height="50" as="geometry"/>
        </mxCell>
        <mxCell id="oUdfxjsugw70LJl3TaLl-34" value="ISF&lt;br&gt;TPR Only&lt;br&gt;Display Only&lt;br&gt;Display w TPR&lt;br&gt;Non Promo" style="text;html=1;fontSize=9;fillColor=#ffffff;" vertex="1" parent="WIyWlLk6GJQsqaUBKTNV-1">
          <mxGeometry x="420" y="1660" width="80" height="60" as="geometry"/>
        </mxCell>
        <mxCell id="oUdfxjsugw70LJl3TaLl-35" style="edgeStyle=orthogonalEdgeStyle;rounded=0;orthogonalLoop=1;jettySize=auto;html=1;exitX=0.5;exitY=1;exitDx=0;exitDy=0;entryX=0.5;entryY=0;entryDx=0;entryDy=0;strokeWidth=1;fontSize=12;" edge="1" source="oUdfxjsugw70LJl3TaLl-36" target="oUdfxjsugw70LJl3TaLl-38" parent="WIyWlLk6GJQsqaUBKTNV-1">
          <mxGeometry relative="1" as="geometry"/>
        </mxCell>
        <mxCell id="oUdfxjsugw70LJl3TaLl-50" style="edgeStyle=orthogonalEdgeStyle;rounded=0;orthogonalLoop=1;jettySize=auto;html=1;exitX=1;exitY=0.5;exitDx=0;exitDy=0;strokeWidth=3;fontColor=#0000FF;fillColor=#f8cecc;strokeColor=#b85450;" edge="1" parent="WIyWlLk6GJQsqaUBKTNV-1" source="oUdfxjsugw70LJl3TaLl-36">
          <mxGeometry relative="1" as="geometry">
            <mxPoint x="670" y="419.4117647058824" as="targetPoint"/>
            <Array as="points">
              <mxPoint x="360" y="1770"/>
              <mxPoint x="360" y="1740"/>
              <mxPoint x="670" y="1740"/>
            </Array>
          </mxGeometry>
        </mxCell>
        <mxCell id="oUdfxjsugw70LJl3TaLl-36" value="TOTAL WEST GBMMDR&lt;br&gt;UV/BUV Causals" style="rounded=1;whiteSpace=wrap;html=1;" vertex="1" parent="WIyWlLk6GJQsqaUBKTNV-1">
          <mxGeometry x="155" y="1750" width="180" height="40" as="geometry"/>
        </mxCell>
        <mxCell id="oUdfxjsugw70LJl3TaLl-37" style="edgeStyle=orthogonalEdgeStyle;rounded=0;orthogonalLoop=1;jettySize=auto;html=1;exitX=0.5;exitY=1;exitDx=0;exitDy=0;entryX=0.5;entryY=0;entryDx=0;entryDy=0;strokeWidth=1;fontSize=12;" edge="1" source="oUdfxjsugw70LJl3TaLl-38" target="oUdfxjsugw70LJl3TaLl-39" parent="WIyWlLk6GJQsqaUBKTNV-1">
          <mxGeometry relative="1" as="geometry"/>
        </mxCell>
        <mxCell id="oUdfxjsugw70LJl3TaLl-38" value="Subtract &lt;br&gt;UV/BUV Causals" style="rounded=0;whiteSpace=wrap;html=1;fillColor=#dae8fc;strokeColor=#6c8ebf;" vertex="1" parent="WIyWlLk6GJQsqaUBKTNV-1">
          <mxGeometry x="185" y="1810" width="120" height="40" as="geometry"/>
        </mxCell>
        <mxCell id="oUdfxjsugw70LJl3TaLl-51" style="edgeStyle=orthogonalEdgeStyle;rounded=0;orthogonalLoop=1;jettySize=auto;html=1;exitX=1;exitY=0.5;exitDx=0;exitDy=0;strokeWidth=3;fontColor=#0000FF;fillColor=#f8cecc;strokeColor=#b85450;" edge="1" parent="WIyWlLk6GJQsqaUBKTNV-1" source="oUdfxjsugw70LJl3TaLl-39">
          <mxGeometry relative="1" as="geometry">
            <mxPoint x="670" y="412.3529411764706" as="targetPoint"/>
          </mxGeometry>
        </mxCell>
        <mxCell id="oUdfxjsugw70LJl3TaLl-39" value="REM CONV WEST&lt;br&gt;UV/BUV Causals" style="rounded=1;whiteSpace=wrap;html=1;" vertex="1" parent="WIyWlLk6GJQsqaUBKTNV-1">
          <mxGeometry x="142.5" y="1900" width="205" height="40" as="geometry"/>
        </mxCell>
        <mxCell id="oUdfxjsugw70LJl3TaLl-45" style="edgeStyle=orthogonalEdgeStyle;rounded=0;orthogonalLoop=1;jettySize=auto;html=1;exitX=0;exitY=0.5;exitDx=0;exitDy=0;entryX=1;entryY=0.5;entryDx=0;entryDy=0;strokeWidth=1;fontColor=#0000FF;" edge="1" parent="WIyWlLk6GJQsqaUBKTNV-1" source="oUdfxjsugw70LJl3TaLl-40" target="oUdfxjsugw70LJl3TaLl-38">
          <mxGeometry relative="1" as="geometry"/>
        </mxCell>
        <mxCell id="oUdfxjsugw70LJl3TaLl-40" value="&lt;div&gt;&lt;span style=&quot;background-color: rgb(255 , 255 , 102)&quot;&gt;REM DISC WEST&lt;/span&gt;&lt;/div&gt;&lt;div&gt;CO-OP CALGARY GB&lt;/div&gt;&lt;div&gt;CO-OP PRAIRIES EXCALGARY CO-OP GB&lt;/div&gt;&lt;div&gt;SAVE-ON-FOODS WEST GB&lt;/div&gt;&lt;div&gt;SOBEYS PRAIRIES GB&lt;/div&gt;&lt;div&gt;THRIFTY FOODS BR COL GB&lt;/div&gt;&lt;div&gt;SAFEWAY TL. WEST + ONTARIO GB&lt;/div&gt;&lt;div&gt;IGA PRAIRIES GB&lt;/div&gt;&lt;div&gt;YIG TOTAL WEST GB&lt;/div&gt;&lt;div&gt;RCSS TOTAL WEST GB&lt;/div&gt;&lt;div&gt;NO FRILLS TOTAL WEST GB&lt;/div&gt;&lt;div&gt;EXTRA FOODS TOTAL WEST GB&lt;/div&gt;" style="text;html=1;fontSize=9;fillColor=#FFFFFF;strokeColor=#666666;fontColor=#333333;" vertex="1" parent="WIyWlLk6GJQsqaUBKTNV-1">
          <mxGeometry x="382.5" y="1760" width="185" height="140" as="geometry"/>
        </mxCell>
        <mxCell id="oUdfxjsugw70LJl3TaLl-12" value="&lt;div&gt;&lt;span style=&quot;background-color: rgb(255 , 255 , 102)&quot;&gt;REM DISCOUNT MARITIMES&lt;/span&gt;&lt;/div&gt;&lt;div&gt;&lt;span style=&quot;background-color: rgb(255 , 255 , 102)&quot;&gt;REM DISC QUEBEC&lt;/span&gt;&lt;/div&gt;&lt;div&gt;&lt;span style=&quot;background-color: rgb(255 , 255 , 102)&quot;&gt;REM DISC ONTARIO&lt;/span&gt;&lt;/div&gt;&lt;div&gt;FOOD BASICS ONTARIO GB&lt;/div&gt;&lt;div&gt;PRICE CHOPPER/FRESHCO ONTARIO GB&lt;/div&gt;&lt;div&gt;NO FRILLS ONTARIO GB&lt;/div&gt;&lt;div&gt;RCSS ONTARIO GB&lt;/div&gt;&lt;div&gt;SUPER C QUEBEC GB&lt;/div&gt;&lt;div&gt;MAXI &amp;amp; CO QUEBEC GB&lt;/div&gt;&lt;div&gt;MAXI BANNER QUEBEC GB&lt;/div&gt;&lt;div&gt;RCSS TOTAL WEST GB&lt;/div&gt;&lt;div&gt;NO FRILLS TOTAL WEST GB&lt;/div&gt;&lt;div&gt;EXTRA FOODS TOTAL WEST GB&lt;/div&gt;" style="text;html=1;fontSize=9;fillColor=#FFFFFF;strokeColor=#666666;fontColor=#333333;" vertex="1" parent="WIyWlLk6GJQsqaUBKTNV-1">
          <mxGeometry x="390" y="810" width="185" height="150" as="geometry"/>
        </mxCell>
      </root>
    </mxGraphModel>
  </diagram>
</mxfile>
